<svg xmlns="http://www.w3.org/2000/svg" viewBox="0 0 23.45 23.46"><defs><style>.cls-1{fill:#b7b7b7;}</style></defs><title>check-circulo</title><g id="Layer_2" data-name="Layer 2"><g id="Contenido-Home"><path class="cls-1" d="M23.45,11.73A11.73,11.73,0,1,1,12,0,11.72,11.72,0,0,1,23.45,11.73Zm-13.4,1-.25-.24c-.62-.63-1.24-1.25-1.87-1.87a1.69,1.69,0,0,0-1.13-.53,1.68,1.68,0,0,0-1.26,2.89l3.25,3.25a1.69,1.69,0,0,0,2.53,0L14,13.56l4-4A1.68,1.68,0,1,0,15.5,7.25c-1.73,1.73-3.45,3.46-5.18,5.18Z"/></g></g></svg>